<?xml version="1.0" encoding="UTF-8" standalone="no"?>
<!-- Created with Inkscape (http://www.inkscape.org/) -->

<svg
   xmlns:dc="http://purl.org/dc/elements/1.1/"
   xmlns:cc="http://creativecommons.org/ns#"
   xmlns:rdf="http://www.w3.org/1999/02/22-rdf-syntax-ns#"
   xmlns:svg="http://www.w3.org/2000/svg"
   xmlns="http://www.w3.org/2000/svg"
   xmlns:sodipodi="http://sodipodi.sourceforge.net/DTD/sodipodi-0.dtd"
   xmlns:inkscape="http://www.inkscape.org/namespaces/inkscape"
   id="svg2"
   version="1.1"
   inkscape:version="0.91 r13725"
   xml:space="preserve"
   width="450"
   height="270"
   viewBox="0 0 450 270"
   sodipodi:docname="openMP.svg"
   inkscape:export-filename="/home/ben/Src/dftb/recipes/docs/parallel/tmp/openMP.svg.png"
   inkscape:export-xdpi="90"
   inkscape:export-ydpi="90"><metadata
     id="metadata8"><rdf:RDF><cc:Work
         rdf:about=""><dc:format>image/svg+xml</dc:format><dc:type
           rdf:resource="http://purl.org/dc/dcmitype/StillImage" /><dc:title></dc:title></cc:Work></rdf:RDF></metadata><defs
     id="defs6" /><sodipodi:namedview
     pagecolor="#ffffff"
     bordercolor="#666666"
     borderopacity="1"
     objecttolerance="10"
     gridtolerance="10"
     guidetolerance="10"
     inkscape:pageopacity="0"
     inkscape:pageshadow="2"
     inkscape:window-width="1920"
     inkscape:window-height="1056"
     id="namedview4"
     showgrid="false"
     inkscape:zoom="3.3488889"
     inkscape:cx="220.67696"
     inkscape:cy="135"
     inkscape:window-x="0"
     inkscape:window-y="24"
     inkscape:window-maximized="1"
     inkscape:current-layer="g10" /><g
     id="g10"
     inkscape:groupmode="layer"
     inkscape:label="openMP"
     transform="matrix(1.25,0,0,-1.25,0,270)"><path
       d="m 74.801,66.699 2.648,1 2.602,1 2.648,1 2.653,1 2.648,1.051 2.602,1.051 2.648,1.051 2.648,1.097 2.653,1.102 2.597,1.097 2.653,1.102 2.648,1.102 2.653,1.148 2.597,1.148 2.653,1.204 L 117,84 l 2.648,1.199 2.602,1.199 2.648,1.204 2.653,1.25 2.597,1.25 2.653,1.25 2.648,1.25 2.653,1.296 2.597,1.25 2.653,1.301 2.648,1.301 2.648,1.352 2.602,1.296 2.648,1.352 2.653,1.352 2.648,1.347 2.602,1.352 2.648,1.398 2.653,1.403 2.648,1.347 2.602,1.403 2.648,1.398 2.648,1.449 2.602,1.403 2.648,1.449 2.653,1.449 2.648,1.398 2.602,1.454 2.648,1.449 2.653,1.449 2.648,1.5 2.602,1.449 2.648,1.449 2.648,1.5 2.653,1.454 2.597,1.5 2.653,1.5 2.648,1.449 2.653,1.5 2.597,1.5 2.653,1.449 5.296,3 2.602,1.5 2.648,1.449 2.653,1.5 2.597,1.5 2.653,1.449 2.648,1.5 2.653,1.454 2.597,1.5 2.653,1.449 2.648,1.449 2.648,1.5 2.602,1.449 2.648,1.449 2.653,1.454 2.648,1.398 2.602,1.449 2.648,1.449 2.653,1.403 2.648,1.398 2.602,1.403 5.296,2.796 2.602,1.352 2.648,1.398 2.653,1.352 2.648,1.352 2.602,1.347 2.648,1.352 2.653,1.301 2.648,1.296 2.602,1.301 5.296,2.602 2.653,1.25 2.597,1.25 2.653,1.25 2.648,1.25 2.653,1.199 2.597,1.199 2.653,1.199"
       style="fill:none;stroke:#7f7f7f;stroke-width:0.75;stroke-linecap:square;stroke-linejoin:miter;stroke-miterlimit:3.79999995;stroke-dasharray:none;stroke-opacity:1"
       id="path152"
       inkscape:connector-curvature="0" /><path
       d="m 74.801,66.699 8.398,0"
       style="fill:none;stroke:#000000;stroke-width:0.5;stroke-linecap:square;stroke-linejoin:miter;stroke-miterlimit:3.79999995;stroke-dasharray:none;stroke-opacity:1"
       id="path16"
       inkscape:connector-curvature="0" /><path
       d="m 335.852,66.699 -8.403,0"
       style="fill:none;stroke:#000000;stroke-width:0.5;stroke-linecap:square;stroke-linejoin:miter;stroke-miterlimit:3.79999995;stroke-dasharray:none;stroke-opacity:1"
       id="path20"
       inkscape:connector-curvature="0" /><text
       id="text22"
       style="font-variant:normal;font-weight:normal;font-size:14.66699219px;font-family:TeXGyreHeros;-inkscape-font-specification:TeXGyreHeros-Regular;writing-mode:lr-tb;fill:#000000;fill-opacity:1;fill-rule:nonzero;stroke:none"
       transform="scale(1,-1)"
       x="58.417267"
       y="-61.885738"><tspan
         id="tspan24"
         y="-61.885738"
         x="58.417267">1</tspan></text>
<path
       d="m 74.801,119.648 8.398,0"
       style="fill:none;stroke:#000000;stroke-width:0.5;stroke-linecap:square;stroke-linejoin:miter;stroke-miterlimit:3.79999995;stroke-dasharray:none;stroke-opacity:1"
       id="path40"
       inkscape:connector-curvature="0" /><path
       d="m 335.852,119.648 -8.403,0"
       style="fill:none;stroke:#000000;stroke-width:0.5;stroke-linecap:square;stroke-linejoin:miter;stroke-miterlimit:3.79999995;stroke-dasharray:none;stroke-opacity:1"
       id="path44"
       inkscape:connector-curvature="0" /><text
       id="text46"
       style="font-variant:normal;font-weight:normal;font-size:14.66699219px;font-family:TeXGyreHeros;-inkscape-font-specification:TeXGyreHeros-Regular;writing-mode:lr-tb;fill:#000000;fill-opacity:1;fill-rule:nonzero;stroke:none"
       transform="scale(1,-1)"
       x="58.417267"
       y="-114.83887"><tspan
         id="tspan48"
         y="-114.83887"
         x="58.417267">2</tspan></text>
<path
       d="m 74.801,172.602 8.398,0"
       style="fill:none;stroke:#000000;stroke-width:0.5;stroke-linecap:square;stroke-linejoin:miter;stroke-miterlimit:3.79999995;stroke-dasharray:none;stroke-opacity:1"
       id="path64"
       inkscape:connector-curvature="0" /><path
       d="m 335.852,172.602 -8.403,0"
       style="fill:none;stroke:#000000;stroke-width:0.5;stroke-linecap:square;stroke-linejoin:miter;stroke-miterlimit:3.79999995;stroke-dasharray:none;stroke-opacity:1"
       id="path68"
       inkscape:connector-curvature="0" /><text
       id="text70"
       style="font-variant:normal;font-weight:normal;font-size:14.66699219px;font-family:TeXGyreHeros;-inkscape-font-specification:TeXGyreHeros-Regular;writing-mode:lr-tb;fill:#000000;fill-opacity:1;fill-rule:nonzero;stroke:none"
       transform="scale(1,-1)"
       x="58.417267"
       y="-167.7881"><tspan
         id="tspan72"
         y="-167.7881"
         x="58.417267">3</tspan></text>
<path
       d="m 74.801,199.051 8.398,0"
       style="fill:none;stroke:#000000;stroke-width:0.5;stroke-linecap:square;stroke-linejoin:miter;stroke-miterlimit:3.79999995;stroke-dasharray:none;stroke-opacity:1"
       id="path76"
       inkscape:connector-curvature="0" /><path
       d="m 335.852,199.051 -8.403,0"
       style="fill:none;stroke:#000000;stroke-width:0.5;stroke-linecap:square;stroke-linejoin:miter;stroke-miterlimit:3.79999995;stroke-dasharray:none;stroke-opacity:1"
       id="path80"
       inkscape:connector-curvature="0" /><path
       d="m 74.801,66.699 0,8.403"
       style="fill:none;stroke:#000000;stroke-width:0.5;stroke-linecap:square;stroke-linejoin:miter;stroke-miterlimit:3.79999995;stroke-dasharray:none;stroke-opacity:1"
       id="path88"
       inkscape:connector-curvature="0" /><path
       d="m 74.801,199.051 0,-8.403"
       style="fill:none;stroke:#000000;stroke-width:0.5;stroke-linecap:square;stroke-linejoin:miter;stroke-miterlimit:3.79999995;stroke-dasharray:none;stroke-opacity:1"
       id="path92"
       inkscape:connector-curvature="0" /><text
       id="text94"
       style="font-variant:normal;font-weight:normal;font-size:14.66699219px;font-family:TeXGyreHeros;-inkscape-font-specification:TeXGyreHeros-Regular;writing-mode:lr-tb;fill:#000000;fill-opacity:1;fill-rule:nonzero;stroke:none"
       transform="scale(1,-1)"
       x="72.733673"
       y="-47.285732"><tspan
         id="tspan96"
         y="-47.285732"
         x="72.733673">1</tspan></text>
<path
       d="m 153.398,66.699 0,8.403"
       style="fill:none;stroke:#000000;stroke-width:0.5;stroke-linecap:square;stroke-linejoin:miter;stroke-miterlimit:3.79999995;stroke-dasharray:none;stroke-opacity:1"
       id="path100"
       inkscape:connector-curvature="0" /><text
       id="text106"
       style="font-variant:normal;font-weight:normal;font-size:14.66699219px;font-family:TeXGyreHeros;-inkscape-font-specification:TeXGyreHeros-Regular;writing-mode:lr-tb;fill:#000000;fill-opacity:1;fill-rule:nonzero;stroke:none"
       transform="scale(1,-1)"
       x="151.33524"
       y="-47.285732"><tspan
         id="tspan108"
         y="-47.285732"
         x="151.33524">2</tspan></text>
<path
       d="m 231.949,66.699 0,8.403"
       style="fill:none;stroke:#000000;stroke-width:0.5;stroke-linecap:square;stroke-linejoin:miter;stroke-miterlimit:3.79999995;stroke-dasharray:none;stroke-opacity:1"
       id="path112"
       inkscape:connector-curvature="0" /><text
       id="text118"
       style="font-variant:normal;font-weight:normal;font-size:14.66699219px;font-family:TeXGyreHeros;-inkscape-font-specification:TeXGyreHeros-Regular;writing-mode:lr-tb;fill:#000000;fill-opacity:1;fill-rule:nonzero;stroke:none"
       transform="scale(1,-1)"
       x="229.88602"
       y="-47.285732"><tspan
         id="tspan120"
         y="-47.285732"
         x="229.88602">4</tspan></text>
<path
       d="m 310.551,66.699 0,8.403"
       style="fill:none;stroke:#000000;stroke-width:0.5;stroke-linecap:square;stroke-linejoin:miter;stroke-miterlimit:3.79999995;stroke-dasharray:none;stroke-opacity:1"
       id="path124"
       inkscape:connector-curvature="0" /><text
       id="text130"
       style="font-variant:normal;font-weight:normal;font-size:14.66699219px;font-family:TeXGyreHeros;-inkscape-font-specification:TeXGyreHeros-Regular;writing-mode:lr-tb;fill:#000000;fill-opacity:1;fill-rule:nonzero;stroke:none"
       transform="scale(1,-1)"
       x="308.48367"
       y="-47.285732"><tspan
         id="tspan132"
         y="-47.285732"
         x="308.48367">8</tspan></text>
<path
       d="m 74.801,199.051 261.051,0 0,-132.352 -261.051,0 0,132.352 z"
       style="fill:none;stroke:#000000;stroke-width:0.5;stroke-linecap:square;stroke-linejoin:miter;stroke-miterlimit:3.79999995;stroke-dasharray:none;stroke-opacity:1"
       id="path136"
       inkscape:connector-curvature="0" /><text
       id="text138"
       style="font-variant:normal;font-weight:normal;font-size:14.66699219px;font-family:TeXGyreHeros;-inkscape-font-specification:TeXGyreHeros-Regular;writing-mode:lr-tb;fill:#000000;fill-opacity:1;fill-rule:nonzero;stroke:none"
       transform="matrix(0,1,1,0,0,0)"
       x="101.06641"
       y="43.911125"><tspan
         id="tspan140"
         sodipodi:role="line"
         y="43.911125"
         x="101.06641 110.8493 119.00414 127.15899 135.31383 143.46869 148.35278 156.50764">Speed-up</tspan></text>
<text
       id="text142"
       style="font-variant:normal;font-weight:normal;font-size:14.66699219px;font-family:TeXGyreHeros;-inkscape-font-specification:TeXGyreHeros-Regular;writing-mode:lr-tb;fill:#000000;fill-opacity:1;fill-rule:nonzero;stroke:none"
       transform="scale(1,-1)"
       x="162.06641"
       y="-25.385746"><tspan
         id="tspan144"
         sodipodi:role="line"
         y="-25.385746"
         x="162.06641 172.65598 176.7334 184.88824 189.71368 197.86853 205.20203 213.35687 220.69037 228.02388 236.17873 241.15083">N processors</tspan></text>
<path
       d="m 74.801,66.699 2.648,0.852 2.602,0.847 2.648,0.852 2.653,0.852 2.648,0.847 2.602,0.903 2.648,0.847 2.648,0.903 2.653,0.898 2.597,0.898 2.653,0.903 2.648,0.898 2.653,0.903 2.597,0.949 2.653,0.898 2.648,0.949 2.648,0.903 2.602,0.949 2.648,0.949 2.653,0.903 2.597,0.949 2.653,0.949 2.648,0.949 2.653,0.949 2.597,0.954 2.653,1 5.296,1.898 2.602,0.949 2.648,0.949 2.653,0.954 2.648,1 2.602,0.949 2.648,0.949 2.653,0.949 2.648,1 2.602,0.949 2.648,0.954 2.648,0.949 2.602,0.949 2.648,0.949 2.653,0.949 2.648,0.954 2.602,0.949 2.648,0.949 2.653,0.949 2.648,0.949 2.602,0.903 2.648,0.949 2.648,0.898 2.653,0.954 2.597,0.898 2.653,0.898 2.648,0.903 2.653,0.898 2.597,0.903 2.653,0.898 2.648,0.898 2.648,0.852 2.602,0.898 2.648,0.852 2.653,0.852 2.597,0.847 2.653,0.852 2.648,0.847 2.653,0.852 2.597,0.801 2.653,0.847 5.296,1.602 2.602,0.801 2.648,0.801 2.653,0.75 2.648,0.796 2.602,0.75 2.648,0.75 2.653,0.75 2.648,0.75 2.602,0.704 2.648,0.75 2.648,0.699 2.602,0.699 2.648,0.699 2.653,0.699 2.648,0.704 2.602,0.648 2.648,0.648 2.653,0.653 2.648,0.648 2.602,0.653 2.648,0.648 2.648,0.602 2.653,0.597 2.597,0.602 2.653,0.597 2.648,0.602 2.653,0.551 2.597,0.597 2.653,0.551"
       style="fill:none;stroke:#7f7f7f;stroke-width:0.75;stroke-linecap:square;stroke-linejoin:miter;stroke-miterlimit:3.79999995;stroke-dasharray:none;stroke-opacity:1"
       id="path148"
       inkscape:connector-curvature="0" /><path
       d="M 75.282539,66.760712 153.44202,105.38301 199.352,128 l 32.597,25.801 25.301,5.75 20.699,13.847 17.449,6.403 15.153,6.5"
       style="fill:none;stroke:#0000ff;stroke-width:0.5;stroke-linecap:square;stroke-linejoin:miter;stroke-miterlimit:3.79999995;stroke-dasharray:none;stroke-opacity:1"
       id="path176"
       inkscape:connector-curvature="0"
       sodipodi:nodetypes="cccccccc" /><path
       d="m 234.949,153.801 c 0,-4 -6,-4 -6,0 0,4 6,4 6,0"
       style="fill:#0000ff;fill-opacity:1;fill-rule:nonzero;stroke:#0000ff;stroke-width:0.5;stroke-linecap:square;stroke-linejoin:miter;stroke-miterlimit:3.79999995;stroke-dasharray:none;stroke-opacity:1"
       id="path188"
       inkscape:connector-curvature="0" /><path
       d="m 260.25,159.551 c 0,-4 -6,-4 -6,0 0,4 6,4 6,0"
       style="fill:#0000ff;fill-opacity:1;fill-rule:nonzero;stroke:#0000ff;stroke-width:0.5;stroke-linecap:square;stroke-linejoin:miter;stroke-miterlimit:3.79999995;stroke-dasharray:none;stroke-opacity:1"
       id="path192"
       inkscape:connector-curvature="0" /><path
       d="m 280.949,173.398 c 0,-4 -6,-4 -6,0 0,4 6,4 6,0"
       style="fill:#0000ff;fill-opacity:1;fill-rule:nonzero;stroke:#0000ff;stroke-width:0.5;stroke-linecap:square;stroke-linejoin:miter;stroke-miterlimit:3.79999995;stroke-dasharray:none;stroke-opacity:1"
       id="path196"
       inkscape:connector-curvature="0" /><path
       d="m 298.398,179.801 c 0,-4 -6,-4 -6,0 0,4 6,4 6,0"
       style="fill:#0000ff;fill-opacity:1;fill-rule:nonzero;stroke:#0000ff;stroke-width:0.5;stroke-linecap:square;stroke-linejoin:miter;stroke-miterlimit:3.79999995;stroke-dasharray:none;stroke-opacity:1"
       id="path200"
       inkscape:connector-curvature="0" /><path
       d="m 313.551,186.301 c 0,-4 -6,-4 -6,0 0,4 6,4 6,0"
       style="fill:#0000ff;fill-opacity:1;fill-rule:nonzero;stroke:#0000ff;stroke-width:0.5;stroke-linecap:square;stroke-linejoin:miter;stroke-miterlimit:3.79999995;stroke-dasharray:none;stroke-opacity:1"
       id="path204"
       inkscape:connector-curvature="0" /><text
       id="text154"
       style="font-variant:normal;font-weight:normal;font-size:10.66699219px;font-family:TeXGyreHeros;-inkscape-font-specification:TeXGyreHeros-Regular;writing-mode:lr-tb;fill:#000000;fill-opacity:1;fill-rule:nonzero;stroke:none"
       transform="scale(1,-1)"
       x="94.746094"
       y="-174.30508"><tspan
         id="tspan156"
         sodipodi:role="line"
         y="-174.30508"
         x="94.746094 101.86098">Si</tspan></text>
<text
       id="text158"
       style="font-variant:normal;font-weight:normal;font-size:8.53320312px;font-family:TeXGyreHeros;-inkscape-font-specification:TeXGyreHeros-Regular;writing-mode:lr-tb;fill:#000000;fill-opacity:1;fill-rule:nonzero;stroke:none"
       transform="scale(1,-1)"
       x="104.23335"
       y="-171.90508"><tspan
         id="tspan160"
         sodipodi:role="line"
         y="-171.90508"
         x="104.23335 108.97781 113.72227">864</tspan></text>
<text
       id="text162"
       style="font-variant:normal;font-weight:normal;font-size:10.66699219px;font-family:TeXGyreHeros;-inkscape-font-specification:TeXGyreHeros-Regular;writing-mode:lr-tb;fill:#000000;fill-opacity:1;fill-rule:nonzero;stroke:none"
       transform="scale(1,-1)"
       x="118.46357"
       y="-174.30508"><tspan
         id="tspan164"
         y="-174.30508"
         x="118.46357">C</tspan></text>
<text
       id="text166"
       style="font-variant:normal;font-weight:normal;font-size:8.53320312px;font-family:TeXGyreHeros;-inkscape-font-specification:TeXGyreHeros-Regular;writing-mode:lr-tb;fill:#000000;fill-opacity:1;fill-rule:nonzero;stroke:none"
       transform="scale(1,-1)"
       x="126.16865"
       y="-171.90508"><tspan
         id="tspan168"
         sodipodi:role="line"
         y="-171.90508"
         x="126.16865 130.91312 135.65758">864</tspan></text>
<path
       d="m 149.202,177.0252 c 0,-4 -6,-4 -6,0 0,4 6,4 6,0"
       style="fill:#0000ff;fill-opacity:1;fill-rule:nonzero;stroke:#0000ff;stroke-width:0.5;stroke-linecap:square;stroke-linejoin:miter;stroke-miterlimit:3.79999995;stroke-dasharray:none;stroke-opacity:1"
       id="path208"
       inkscape:connector-curvature="0" /><path
       d="m 75.760309,67.582875 77.681711,35.262215 45.90998,19.25691 32.597,20.398 25.301,4.898 20.699,13.102 17.449,4.102 15.153,1.648"
       style="fill:none;stroke:#ff00ff;stroke-width:0.5;stroke-linecap:square;stroke-linejoin:miter;stroke-miterlimit:3.79999995;stroke-dasharray:none;stroke-opacity:1"
       id="path232"
       inkscape:connector-curvature="0"
       sodipodi:nodetypes="cccccccc" /><path
       d="m 156.398,102.699 c 0,-4 -6,-4 -6,0 0,4 6,4 6,0"
       style="fill:#ff00ff;fill-opacity:1;fill-rule:nonzero;stroke:#ff00ff;stroke-width:0.5;stroke-linecap:square;stroke-linejoin:miter;stroke-miterlimit:3.79999995;stroke-dasharray:none;stroke-opacity:1"
       id="path236"
       inkscape:connector-curvature="0" /><path
       d="m 202.352,122.102 c 0,-4 -6,-4 -6,0 0,4 6,4 6,0"
       style="fill:#ff00ff;fill-opacity:1;fill-rule:nonzero;stroke:#ff00ff;stroke-width:0.5;stroke-linecap:square;stroke-linejoin:miter;stroke-miterlimit:3.79999995;stroke-dasharray:none;stroke-opacity:1"
       id="path240"
       inkscape:connector-curvature="0" /><path
       d="m 234.949,142.5 c 0,-4 -6,-4 -6,0 0,4 6,4 6,0"
       style="fill:#ff00ff;fill-opacity:1;fill-rule:nonzero;stroke:#ff00ff;stroke-width:0.5;stroke-linecap:square;stroke-linejoin:miter;stroke-miterlimit:3.79999995;stroke-dasharray:none;stroke-opacity:1"
       id="path244"
       inkscape:connector-curvature="0" /><path
       d="m 260.25,147.398 c 0,-4 -6,-4 -6,0 0,4 6,4 6,0"
       style="fill:#ff00ff;fill-opacity:1;fill-rule:nonzero;stroke:#ff00ff;stroke-width:0.5;stroke-linecap:square;stroke-linejoin:miter;stroke-miterlimit:3.79999995;stroke-dasharray:none;stroke-opacity:1"
       id="path248"
       inkscape:connector-curvature="0" /><path
       d="m 280.949,160.5 c 0,-4 -6,-4 -6,0 0,4 6,4 6,0"
       style="fill:#ff00ff;fill-opacity:1;fill-rule:nonzero;stroke:#ff00ff;stroke-width:0.5;stroke-linecap:square;stroke-linejoin:miter;stroke-miterlimit:3.79999995;stroke-dasharray:none;stroke-opacity:1"
       id="path252"
       inkscape:connector-curvature="0" /><path
       d="m 298.398,164.602 c 0,-4 -6,-4 -6,0 0,4 6,4 6,0"
       style="fill:#ff00ff;fill-opacity:1;fill-rule:nonzero;stroke:#ff00ff;stroke-width:0.5;stroke-linecap:square;stroke-linejoin:miter;stroke-miterlimit:3.79999995;stroke-dasharray:none;stroke-opacity:1"
       id="path256"
       inkscape:connector-curvature="0" /><path
       d="m 313.551,166.25 c 0,-4 -6,-4 -6,0 0,4 6,4 6,0"
       style="fill:#ff00ff;fill-opacity:1;fill-rule:nonzero;stroke:#ff00ff;stroke-width:0.5;stroke-linecap:square;stroke-linejoin:miter;stroke-miterlimit:3.79999995;stroke-dasharray:none;stroke-opacity:1"
       id="path260"
       inkscape:connector-curvature="0" /><text
       id="text210"
       style="font-variant:normal;font-weight:normal;font-size:10.66699219px;font-family:TeXGyreHeros;-inkscape-font-specification:TeXGyreHeros-Regular;writing-mode:lr-tb;fill:#000000;fill-opacity:1;fill-rule:nonzero;stroke:none"
       transform="scale(1,-1)"
       x="94.746094"
       y="-159.70508"><tspan
         id="tspan212"
         sodipodi:role="line"
         y="-159.70508"
         x="94.746094 101.86098">Si</tspan></text>
<text
       id="text214"
       style="font-variant:normal;font-weight:normal;font-size:8.53320312px;font-family:TeXGyreHeros;-inkscape-font-specification:TeXGyreHeros-Regular;writing-mode:lr-tb;fill:#000000;fill-opacity:1;fill-rule:nonzero;stroke:none"
       transform="scale(1,-1)"
       x="104.23335"
       y="-157.30507"><tspan
         id="tspan216"
         sodipodi:role="line"
         y="-157.30507"
         x="104.23335 108.97781 113.72227">500</tspan></text>
<text
       id="text218"
       style="font-variant:normal;font-weight:normal;font-size:10.66699219px;font-family:TeXGyreHeros;-inkscape-font-specification:TeXGyreHeros-Regular;writing-mode:lr-tb;fill:#000000;fill-opacity:1;fill-rule:nonzero;stroke:none"
       transform="scale(1,-1)"
       x="118.46357"
       y="-159.70508"><tspan
         id="tspan220"
         y="-159.70508"
         x="118.46357">C</tspan></text>
<text
       id="text222"
       style="font-variant:normal;font-weight:normal;font-size:8.53320312px;font-family:TeXGyreHeros;-inkscape-font-specification:TeXGyreHeros-Regular;writing-mode:lr-tb;fill:#000000;fill-opacity:1;fill-rule:nonzero;stroke:none"
       transform="scale(1,-1)"
       x="126.16865"
       y="-157.30507"><tspan
         id="tspan224"
         sodipodi:role="line"
         y="-157.30507"
         x="126.16865 130.91312 135.65758">500</tspan></text>
<path
       d="m 149.202,162.4252 c 0,-4 -6,-4 -6,0 0,4 6,4 6,0"
       style="fill:#ff00ff;fill-opacity:1;fill-rule:nonzero;stroke:#ff00ff;stroke-width:0.5;stroke-linecap:square;stroke-linejoin:miter;stroke-miterlimit:3.79999995;stroke-dasharray:none;stroke-opacity:1"
       id="path264"
       inkscape:connector-curvature="0" /><path
       d="M 75.282539,67.384776 153.20314,96.014018 199.352,112.699 l 32.597,14.551 25.301,5.75 20.699,5.301 17.449,3.097 15.153,3.403"
       style="fill:none;stroke:#00ffff;stroke-width:0.5;stroke-linecap:square;stroke-linejoin:miter;stroke-miterlimit:3.79999995;stroke-dasharray:none;stroke-opacity:1"
       id="path288"
       inkscape:connector-curvature="0"
       sodipodi:nodetypes="cccccccc" /><path
       d="m 156.398,96.051 c 0,-4 -6,-4 -6,0 0,4 6,4 6,0"
       style="fill:#00ffff;fill-opacity:1;fill-rule:nonzero;stroke:#00ffff;stroke-width:0.5;stroke-linecap:square;stroke-linejoin:miter;stroke-miterlimit:3.79999995;stroke-dasharray:none;stroke-opacity:1"
       id="path292"
       inkscape:connector-curvature="0" /><path
       d="m 202.352,112.699 c 0,-4 -6,-4 -6,0 0,4 6,4 6,0"
       style="fill:#00ffff;fill-opacity:1;fill-rule:nonzero;stroke:#00ffff;stroke-width:0.5;stroke-linecap:square;stroke-linejoin:miter;stroke-miterlimit:3.79999995;stroke-dasharray:none;stroke-opacity:1"
       id="path296"
       inkscape:connector-curvature="0" /><path
       d="m 234.949,127.25 c 0,-4 -6,-4 -6,0 0,4 6,4 6,0"
       style="fill:#00ffff;fill-opacity:1;fill-rule:nonzero;stroke:#00ffff;stroke-width:0.5;stroke-linecap:square;stroke-linejoin:miter;stroke-miterlimit:3.79999995;stroke-dasharray:none;stroke-opacity:1"
       id="path300"
       inkscape:connector-curvature="0" /><path
       d="m 260.25,133 c 0,-4 -6,-4 -6,0 0,4 6,4 6,0"
       style="fill:#00ffff;fill-opacity:1;fill-rule:nonzero;stroke:#00ffff;stroke-width:0.5;stroke-linecap:square;stroke-linejoin:miter;stroke-miterlimit:3.79999995;stroke-dasharray:none;stroke-opacity:1"
       id="path304"
       inkscape:connector-curvature="0" /><path
       d="m 280.949,138.301 c 0,-4 -6,-4 -6,0 0,4 6,4 6,0"
       style="fill:#00ffff;fill-opacity:1;fill-rule:nonzero;stroke:#00ffff;stroke-width:0.5;stroke-linecap:square;stroke-linejoin:miter;stroke-miterlimit:3.79999995;stroke-dasharray:none;stroke-opacity:1"
       id="path308"
       inkscape:connector-curvature="0" /><path
       d="m 298.398,141.398 c 0,-4 -6,-4 -6,0 0,4 6,4 6,0"
       style="fill:#00ffff;fill-opacity:1;fill-rule:nonzero;stroke:#00ffff;stroke-width:0.5;stroke-linecap:square;stroke-linejoin:miter;stroke-miterlimit:3.79999995;stroke-dasharray:none;stroke-opacity:1"
       id="path312"
       inkscape:connector-curvature="0" /><path
       d="m 313.551,144.801 c 0,-4 -6,-4 -6,0 0,4 6,4 6,0"
       style="fill:#00ffff;fill-opacity:1;fill-rule:nonzero;stroke:#00ffff;stroke-width:0.5;stroke-linecap:square;stroke-linejoin:miter;stroke-miterlimit:3.79999995;stroke-dasharray:none;stroke-opacity:1"
       id="path316"
       inkscape:connector-curvature="0" /><text
       id="text266"
       style="font-variant:normal;font-weight:normal;font-size:10.66699219px;font-family:TeXGyreHeros;-inkscape-font-specification:TeXGyreHeros-Regular;writing-mode:lr-tb;fill:#000000;fill-opacity:1;fill-rule:nonzero;stroke:none"
       transform="scale(1,-1)"
       x="94.746094"
       y="-145.10509"><tspan
         id="tspan268"
         sodipodi:role="line"
         y="-145.10509"
         x="94.746094 101.86098">Si</tspan></text>
<text
       id="text270"
       style="font-variant:normal;font-weight:normal;font-size:8.53320312px;font-family:TeXGyreHeros;-inkscape-font-specification:TeXGyreHeros-Regular;writing-mode:lr-tb;fill:#000000;fill-opacity:1;fill-rule:nonzero;stroke:none"
       transform="scale(1,-1)"
       x="104.23335"
       y="-142.70508"><tspan
         id="tspan272"
         sodipodi:role="line"
         y="-142.70508"
         x="104.23335 108.97781 113.72227">216</tspan></text>
<text
       id="text274"
       style="font-variant:normal;font-weight:normal;font-size:10.66699219px;font-family:TeXGyreHeros;-inkscape-font-specification:TeXGyreHeros-Regular;writing-mode:lr-tb;fill:#000000;fill-opacity:1;fill-rule:nonzero;stroke:none"
       transform="scale(1,-1)"
       x="118.46357"
       y="-145.10509"><tspan
         id="tspan276"
         y="-145.10509"
         x="118.46357">C</tspan></text>
<text
       id="text278"
       style="font-variant:normal;font-weight:normal;font-size:8.53320312px;font-family:TeXGyreHeros;-inkscape-font-specification:TeXGyreHeros-Regular;writing-mode:lr-tb;fill:#000000;fill-opacity:1;fill-rule:nonzero;stroke:none"
       transform="scale(1,-1)"
       x="126.16865"
       y="-142.70508"><tspan
         id="tspan280"
         sodipodi:role="line"
         y="-142.70508"
         x="126.16865 130.91312 135.65758">216</tspan></text>
<path
       d="m 149.202,147.8252 c 0,-4 -6,-4 -6,0 0,4 6,4 6,0"
       style="fill:#00ffff;fill-opacity:1;fill-rule:nonzero;stroke:#00ffff;stroke-width:0.5;stroke-linecap:square;stroke-linejoin:miter;stroke-miterlimit:3.79999995;stroke-dasharray:none;stroke-opacity:1"
       id="path320"
       inkscape:connector-curvature="0" /><path
       d="m 74.801,199.051 261.051,0 0,-132.352 -261.051,0 0,132.352 z"
       style="fill:none;stroke:#000000;stroke-width:0.5;stroke-linecap:square;stroke-linejoin:miter;stroke-miterlimit:3.79999995;stroke-dasharray:none;stroke-opacity:1"
       id="path324"
       inkscape:connector-curvature="0" /><path
       d="m 156.398,105.699 c 0,-4 -6,-4 -6,0 0,4 6,4 6,0"
       style="fill:#0000ff;fill-opacity:1;fill-rule:nonzero;stroke:#0000ff;stroke-width:0.5;stroke-linecap:square;stroke-linejoin:miter;stroke-miterlimit:3.79999995;stroke-dasharray:none;stroke-opacity:1"
       id="path180"
       inkscape:connector-curvature="0" /><path
       d="m 202.352,128 c 0,-4 -6,-4 -6,0 0,4 6,4 6,0"
       style="fill:#0000ff;fill-opacity:1;fill-rule:nonzero;stroke:#0000ff;stroke-width:0.5;stroke-linecap:square;stroke-linejoin:miter;stroke-miterlimit:3.79999995;stroke-dasharray:none;stroke-opacity:1"
       id="path184"
       inkscape:connector-curvature="0" /><text
       y="-137.98337"
       x="317.51572"
       transform="scale(1,-1)"
       style="font-variant:normal;font-weight:normal;font-size:8.53320312px;font-family:TeXGyreHeros;-inkscape-font-specification:TeXGyreHeros-Regular;writing-mode:lr-tb;fill:#666666;fill-opacity:1;fill-rule:nonzero;stroke:none"
       id="text4784"><tspan
         x="317.51572"
         sodipodi:role="line"
         id="tspan4786"
         y="-137.98337">68%</tspan></text>
<text
       id="text4788"
       style="font-variant:normal;font-weight:normal;font-size:8.53320312px;font-family:TeXGyreHeros;-inkscape-font-specification:TeXGyreHeros-Regular;writing-mode:lr-tb;fill:#666666;fill-opacity:1;fill-rule:nonzero;stroke:none"
       transform="scale(1,-1)"
       x="317.51572"
       y="-182.78354"><tspan
         y="-182.78354"
         id="tspan4790"
         sodipodi:role="line"
         x="317.51572">79%</tspan></text>
</g></svg>