<?xml version="1.0" encoding="UTF-8" standalone="no"?>
<!-- Created with Inkscape (http://www.inkscape.org/) -->

<svg
   xmlns:dc="http://purl.org/dc/elements/1.1/"
   xmlns:cc="http://creativecommons.org/ns#"
   xmlns:rdf="http://www.w3.org/1999/02/22-rdf-syntax-ns#"
   xmlns:svg="http://www.w3.org/2000/svg"
   xmlns="http://www.w3.org/2000/svg"
   xmlns:sodipodi="http://sodipodi.sourceforge.net/DTD/sodipodi-0.dtd"
   xmlns:inkscape="http://www.inkscape.org/namespaces/inkscape"
   id="svg2"
   version="1.1"
   inkscape:version="0.91 r13725"
   xml:space="preserve"
   width="450"
   height="270"
   viewBox="0 0 450 270"
   sodipodi:docname="weakOpenMP.svg"
   inkscape:export-filename="/home/ben/Src/dftb/recipes/docs/weakOpenMP.png"
   inkscape:export-xdpi="90"
   inkscape:export-ydpi="90"><metadata
     id="metadata8"><rdf:RDF><cc:Work
         rdf:about=""><dc:format>image/svg+xml</dc:format><dc:type
           rdf:resource="http://purl.org/dc/dcmitype/StillImage" /><dc:title></dc:title></cc:Work></rdf:RDF></metadata><defs
     id="defs6" /><sodipodi:namedview
     pagecolor="#ffffff"
     bordercolor="#666666"
     borderopacity="1"
     objecttolerance="10"
     gridtolerance="10"
     guidetolerance="10"
     inkscape:pageopacity="0"
     inkscape:pageshadow="2"
     inkscape:window-width="1680"
     inkscape:window-height="1026"
     id="namedview4"
     showgrid="false"
     inkscape:zoom="2.6111111"
     inkscape:cx="224.45568"
     inkscape:cy="100.90559"
     inkscape:window-x="1920"
     inkscape:window-y="24"
     inkscape:window-maximized="1"
     inkscape:current-layer="g10" /><g
     id="g10"
     inkscape:groupmode="layer"
     inkscape:label="weakOpenMP"
     transform="matrix(1.25,0,0,-1.25,0,270)"><path
       d="m 74.801,66.699 8.398,0"
       style="fill:none;stroke:#000000;stroke-width:0.75;stroke-linecap:square;stroke-linejoin:miter;stroke-miterlimit:3.79999995;stroke-dasharray:none;stroke-opacity:1"
       id="path16"
       inkscape:connector-curvature="0" /><text
       id="text22"
       style="font-variant:normal;font-weight:normal;font-size:14.66699219px;font-family:TeXGyreHeros;-inkscape-font-specification:TeXGyreHeros-Regular;writing-mode:lr-tb;fill:#000000;fill-opacity:1;fill-rule:nonzero;stroke:none"
       transform="scale(1,-1)"
       x="58.417267"
       y="-58.685741"><tspan
         id="tspan24"
         y="-58.685741"
         x="58.417267">0</tspan></text>
<path
       d="m 74.801,86.898 8.398,0"
       style="fill:none;stroke:#000000;stroke-width:0.75;stroke-linecap:square;stroke-linejoin:miter;stroke-miterlimit:3.79999995;stroke-dasharray:none;stroke-opacity:1"
       id="path28"
       inkscape:connector-curvature="0" /><text
       id="text34"
       style="font-variant:normal;font-weight:normal;font-size:14.66699219px;font-family:TeXGyreHeros;-inkscape-font-specification:TeXGyreHeros-Regular;writing-mode:lr-tb;fill:#000000;fill-opacity:1;fill-rule:nonzero;stroke:none"
       transform="scale(1,-1)"
       x="42.100861"
       y="-78.88887"><tspan
         id="tspan36"
         sodipodi:role="line"
         y="-78.88887"
         x="42.100861 50.255711 58.410557">100</tspan></text>
<path
       d="m 74.801,107.148 8.398,0"
       style="fill:none;stroke:#000000;stroke-width:0.75;stroke-linecap:square;stroke-linejoin:miter;stroke-miterlimit:3.79999995;stroke-dasharray:none;stroke-opacity:1"
       id="path40"
       inkscape:connector-curvature="0" /><text
       id="text46"
       style="font-variant:normal;font-weight:normal;font-size:14.66699219px;font-family:TeXGyreHeros;-inkscape-font-specification:TeXGyreHeros-Regular;writing-mode:lr-tb;fill:#000000;fill-opacity:1;fill-rule:nonzero;stroke:none"
       transform="scale(1,-1)"
       x="42.100861"
       y="-99.13887"><tspan
         id="tspan48"
         sodipodi:role="line"
         y="-99.13887"
         x="42.100861 50.255711 58.410557">200</tspan></text>
<path
       d="m 74.801,127.352 8.398,0"
       style="fill:none;stroke:#000000;stroke-width:0.75;stroke-linecap:square;stroke-linejoin:miter;stroke-miterlimit:3.79999995;stroke-dasharray:none;stroke-opacity:1"
       id="path52"
       inkscape:connector-curvature="0" /><text
       id="text58"
       style="font-variant:normal;font-weight:normal;font-size:14.66699219px;font-family:TeXGyreHeros;-inkscape-font-specification:TeXGyreHeros-Regular;writing-mode:lr-tb;fill:#000000;fill-opacity:1;fill-rule:nonzero;stroke:none"
       transform="scale(1,-1)"
       x="42.100861"
       y="-119.33809"><tspan
         id="tspan60"
         sodipodi:role="line"
         y="-119.33809"
         x="42.100861 50.255711 58.410557">300</tspan></text>
<path
       d="m 74.801,147.551 8.398,0"
       style="fill:none;stroke:#000000;stroke-width:0.75;stroke-linecap:square;stroke-linejoin:miter;stroke-miterlimit:3.79999995;stroke-dasharray:none;stroke-opacity:1"
       id="path64"
       inkscape:connector-curvature="0" /><text
       id="text70"
       style="font-variant:normal;font-weight:normal;font-size:14.66699219px;font-family:TeXGyreHeros;-inkscape-font-specification:TeXGyreHeros-Regular;writing-mode:lr-tb;fill:#000000;fill-opacity:1;fill-rule:nonzero;stroke:none"
       transform="scale(1,-1)"
       x="42.100861"
       y="-139.53729"><tspan
         id="tspan72"
         sodipodi:role="line"
         y="-139.53729"
         x="42.100861 50.255711 58.410557">400</tspan></text>
<path
       d="m 74.801,167.801 8.398,0"
       style="fill:none;stroke:#000000;stroke-width:0.75;stroke-linecap:square;stroke-linejoin:miter;stroke-miterlimit:3.79999995;stroke-dasharray:none;stroke-opacity:1"
       id="path76"
       inkscape:connector-curvature="0" /><text
       id="text82"
       style="font-variant:normal;font-weight:normal;font-size:14.66699219px;font-family:TeXGyreHeros;-inkscape-font-specification:TeXGyreHeros-Regular;writing-mode:lr-tb;fill:#000000;fill-opacity:1;fill-rule:nonzero;stroke:none"
       transform="scale(1,-1)"
       x="42.100861"
       y="-159.78729"><tspan
         id="tspan84"
         sodipodi:role="line"
         y="-159.78729"
         x="42.100861 50.255711 58.410557">500</tspan></text>
<path
       d="m 74.801,188 8.398,0"
       style="fill:none;stroke:#000000;stroke-width:0.75;stroke-linecap:square;stroke-linejoin:miter;stroke-miterlimit:3.79999995;stroke-dasharray:none;stroke-opacity:1"
       id="path88"
       inkscape:connector-curvature="0" /><text
       id="text94"
       style="font-variant:normal;font-weight:normal;font-size:14.66699219px;font-family:TeXGyreHeros;-inkscape-font-specification:TeXGyreHeros-Regular;writing-mode:lr-tb;fill:#000000;fill-opacity:1;fill-rule:nonzero;stroke:none"
       transform="scale(1,-1)"
       x="42.100861"
       y="-179.98653"><tspan
         id="tspan96"
         sodipodi:role="line"
         y="-179.98653"
         x="42.100861 50.255711 58.410557">600</tspan></text>
<path
       d="m 74.801,66.699 0,8.403"
       style="fill:none;stroke:#000000;stroke-width:0.75;stroke-linecap:square;stroke-linejoin:miter;stroke-miterlimit:3.79999995;stroke-dasharray:none;stroke-opacity:1"
       id="path100"
       inkscape:connector-curvature="0" /><path
       d="m 74.801,199.051 0,-8.403"
       style="fill:none;stroke:#000000;stroke-width:0.75;stroke-linecap:square;stroke-linejoin:miter;stroke-miterlimit:3.79999995;stroke-dasharray:none;stroke-opacity:1"
       id="path104"
       inkscape:connector-curvature="0" /><text
       id="text106"
       style="font-variant:normal;font-weight:normal;font-size:14.66699219px;font-family:TeXGyreHeros;-inkscape-font-specification:TeXGyreHeros-Regular;writing-mode:lr-tb;fill:#000000;fill-opacity:1;fill-rule:nonzero;stroke:none"
       transform="scale(1,-1)"
       x="72.733673"
       y="-47.285732"><tspan
         id="tspan108"
         y="-47.285732"
         x="72.733673">1</tspan></text>
<path
       d="m 112.051,66.699 0,8.403"
       style="fill:none;stroke:#000000;stroke-width:0.75;stroke-linecap:square;stroke-linejoin:miter;stroke-miterlimit:3.79999995;stroke-dasharray:none;stroke-opacity:1"
       id="path112"
       inkscape:connector-curvature="0" /><text
       id="text118"
       style="font-variant:normal;font-weight:normal;font-size:14.66699219px;font-family:TeXGyreHeros;-inkscape-font-specification:TeXGyreHeros-Regular;writing-mode:lr-tb;fill:#000000;fill-opacity:1;fill-rule:nonzero;stroke:none"
       transform="scale(1,-1)"
       x="109.98367"
       y="-47.285732"><tspan
         id="tspan120"
         y="-47.285732"
         x="109.98367">2</tspan></text>
<path
       d="m 149.25,66.699 0,8.403"
       style="fill:none;stroke:#000000;stroke-width:0.75;stroke-linecap:square;stroke-linejoin:miter;stroke-miterlimit:3.79999995;stroke-dasharray:none;stroke-opacity:1"
       id="path124"
       inkscape:connector-curvature="0" /><path
       d="m 186.5,66.699 0,8.403"
       style="fill:none;stroke:#000000;stroke-width:0.75;stroke-linecap:square;stroke-linejoin:miter;stroke-miterlimit:3.79999995;stroke-dasharray:none;stroke-opacity:1"
       id="path136"
       inkscape:connector-curvature="0" /><text
       id="text142"
       style="font-variant:normal;font-weight:normal;font-size:14.66699219px;font-family:TeXGyreHeros;-inkscape-font-specification:TeXGyreHeros-Regular;writing-mode:lr-tb;fill:#000000;fill-opacity:1;fill-rule:nonzero;stroke:none"
       transform="scale(1,-1)"
       x="184.43289"
       y="-47.285732"><tspan
         id="tspan144"
         y="-47.285732"
         x="184.43289">4</tspan></text>
<path
       d="m 223.75,66.699 0,8.403"
       style="fill:none;stroke:#000000;stroke-width:0.75;stroke-linecap:square;stroke-linejoin:miter;stroke-miterlimit:3.79999995;stroke-dasharray:none;stroke-opacity:1"
       id="path148"
       inkscape:connector-curvature="0" /><path
       d="m 261,66.699 0,8.403"
       style="fill:none;stroke:#000000;stroke-width:0.75;stroke-linecap:square;stroke-linejoin:miter;stroke-miterlimit:3.79999995;stroke-dasharray:none;stroke-opacity:1"
       id="path160"
       inkscape:connector-curvature="0" /><path
       d="m 298.199,66.699 0,8.403"
       style="fill:none;stroke:#000000;stroke-width:0.75;stroke-linecap:square;stroke-linejoin:miter;stroke-miterlimit:3.79999995;stroke-dasharray:none;stroke-opacity:1"
       id="path172"
       inkscape:connector-curvature="0" /><text
       id="text190"
       style="font-variant:normal;font-weight:normal;font-size:14.66699219px;font-family:TeXGyreHeros;-inkscape-font-specification:TeXGyreHeros-Regular;writing-mode:lr-tb;fill:#000000;fill-opacity:1;fill-rule:nonzero;stroke:none"
       transform="scale(1,-1)"
       x="333.38602"
       y="-47.285732"><tspan
         id="tspan192"
         y="-47.285732"
         x="333.38602">8</tspan></text>
<path
       d="m 74.801,199.051 261.051,0 0,-132.352 -261.051,0 0,132.352 z"
       style="fill:none;stroke:#000000;stroke-width:0.75;stroke-linecap:square;stroke-linejoin:miter;stroke-miterlimit:3.79999995;stroke-dasharray:none;stroke-opacity:1"
       id="path196"
       inkscape:connector-curvature="0" /><text
       id="text198"
       style="font-variant:normal;font-weight:normal;font-size:14.66699219px;font-family:TeXGyreHeros;-inkscape-font-specification:TeXGyreHeros-Regular;writing-mode:lr-tb;fill:#000000;fill-opacity:1;fill-rule:nonzero;stroke:none"
       transform="matrix(0,1,1,0,0,0)"
       x="74.4375"
       y="31.111135"><tspan
         id="tspan200"
         sodipodi:role="line"
         y="31.111135"
         x="74.4375 87.696457 95.851311 99.107376 102.36345 106.44087 113.77437 117.03044 125.18529 132.62146 139.95496 144.03238 148.1098 151.36588 163.58348 171.73833 175.81575 179.89317 183.9706">Wall clock time / s</tspan></text>
<text
       id="text202"
       style="font-variant:normal;font-weight:normal;font-size:14.66699219px;font-family:TeXGyreHeros;-inkscape-font-specification:TeXGyreHeros-Regular;writing-mode:lr-tb;fill:#000000;fill-opacity:1;fill-rule:nonzero;stroke:none"
       transform="scale(1,-1)"
       x="162.06641"
       y="-28.585747"><tspan
         id="tspan204"
         sodipodi:role="line"
         y="-28.585747"
         x="162.06641 172.65598 176.7334 184.88824 189.71368 197.86853 205.20203 213.35687 220.69037 228.02388 236.17873 241.15083">N processors</tspan></text>
<path
       d="m 74.801,68.648 2.648,0.25 2.602,0.301 2.648,0.352 2.653,0.347 2.648,0.352 2.602,0.352 2.648,0.398 2.648,0.449 2.653,0.449 2.597,0.454 2.653,0.449 2.648,0.5 2.653,0.5 2.597,0.551 2.653,0.546 5.296,1.204 2.602,0.597 2.648,0.602 2.653,0.648 2.597,0.699 2.653,0.704 2.648,0.699 2.653,0.699 2.597,0.75 2.653,0.801 2.648,0.75 2.648,0.847 2.602,0.801 2.648,0.852 2.653,0.847 2.648,0.903 2.602,0.898 2.648,0.903 2.653,0.949 2.648,0.949 2.602,1 5.296,2 2.602,1.051 2.648,1.051 2.653,1.097 2.648,1.102 2.602,1.097 2.648,1.153 2.653,1.148 2.648,1.153 2.602,1.199 2.648,1.25 2.648,1.199 2.653,1.25 2.597,1.301 2.653,1.25 2.648,1.347 2.653,1.301 2.597,1.352 2.653,1.398 2.648,1.352 2.648,1.398 2.602,1.449 2.648,1.454 2.653,1.449 2.597,1.5 2.653,1.5 2.648,1.5 2.653,1.551 2.597,1.546 2.653,1.602 2.648,1.602 2.648,1.597 2.602,1.653 2.648,1.648 2.653,1.699 2.648,1.699 2.602,1.704 2.648,1.75 2.653,1.75 2.648,1.75 2.602,1.796 2.648,1.801 2.648,1.852 2.602,1.847 2.648,1.903 2.653,1.847 2.648,1.954 2.602,1.898 2.648,1.949 2.653,1.949 2.648,2 2.602,2 5.296,4.102 2.653,2.051 2.597,2.097 2.653,2.102 2.648,2.102 2.653,2.148 2.597,2.148 2.653,2.204"
       style="fill:none;stroke:#000000;stroke-width:0.5;stroke-linecap:square;stroke-linejoin:miter;stroke-miterlimit:3.79999995;stroke-dasharray:none;stroke-opacity:1"
       id="path208"
       inkscape:connector-curvature="0" /><path
       d="M 112.051,74.449 186.5,94 298.199,163.898"
       style="fill:none;stroke:#ff0000;stroke-width:0.5;stroke-linecap:square;stroke-linejoin:miter;stroke-miterlimit:3.79999995;stroke-dasharray:none;stroke-opacity:1"
       id="path212"
       inkscape:connector-curvature="0" /><path
       d="m 118.051,74.449 c 0,-3.312 -2.688,-6 -6,-6 -3.317,0 -6,2.688 -6,6 0,3.317 2.683,6 6,6 3.312,0 6,-2.683 6,-6"
       style="fill:#ff0000;fill-opacity:1;fill-rule:nonzero;stroke:#ff0000;stroke-width:0.5;stroke-linecap:square;stroke-linejoin:miter;stroke-miterlimit:3.79999995;stroke-dasharray:none;stroke-opacity:1"
       id="path216"
       inkscape:connector-curvature="0" /><path
       d="m 192.5,94 c 0,-3.312 -2.688,-6 -6,-6 -3.312,0 -6,2.688 -6,6 0,3.312 2.688,6 6,6 3.312,0 6,-2.688 6,-6"
       style="fill:#ff0000;fill-opacity:1;fill-rule:nonzero;stroke:#ff0000;stroke-width:0.5;stroke-linecap:square;stroke-linejoin:miter;stroke-miterlimit:3.79999995;stroke-dasharray:none;stroke-opacity:1"
       id="path220"
       inkscape:connector-curvature="0" /><path
       d="m 304.199,163.898 c 0,-3.312 -2.683,-6 -6,-6 -3.312,0 -6,2.688 -6,6 0,3.317 2.688,6 6,6 3.317,0 6,-2.683 6,-6"
       style="fill:#ff0000;fill-opacity:1;fill-rule:nonzero;stroke:#ff0000;stroke-width:0.5;stroke-linecap:square;stroke-linejoin:miter;stroke-miterlimit:3.79999995;stroke-dasharray:none;stroke-opacity:1"
       id="path224"
       inkscape:connector-curvature="0" /><path
       d="m 74.801,199.051 261.051,0 0,-132.352 -261.051,0 0,132.352 z"
       style="fill:none;stroke:#000000;stroke-width:0.75;stroke-linecap:square;stroke-linejoin:miter;stroke-miterlimit:3.79999995;stroke-dasharray:none;stroke-opacity:1"
       id="path228"
       inkscape:connector-curvature="0" /><text
       y="-99.593414"
       x="89.624275"
       transform="scale(1,-1)"
       style="font-variant:normal;font-weight:normal;font-size:14.66699219px;font-family:TeXGyreHeros;-inkscape-font-specification:TeXGyreHeros-Regular;writing-mode:lr-tb;fill:#000000;fill-opacity:1;fill-rule:nonzero;stroke:none"
       id="text4501"><tspan
         x="89.624275"
         y="-99.593414"
         sodipodi:role="line"
         id="tspan4503"
         style="font-size:10px">Si<tspan
   style="font-size:51.99999809%;baseline-shift:sub"
   id="tspan4505">216</tspan>C<tspan
   style="font-size:51.99999809%;baseline-shift:sub"
   id="tspan4507">216</tspan></tspan><tspan
         x="89.624275"
         y="-87.093414"
         sodipodi:role="line"
         style="font-size:10px"
         id="tspan4531">216 at./proc.</tspan></text>
<text
       id="text4509"
       style="font-variant:normal;font-weight:normal;font-size:14.66699219px;font-family:TeXGyreHeros;-inkscape-font-specification:TeXGyreHeros-Regular;writing-mode:lr-tb;fill:#000000;fill-opacity:1;fill-rule:nonzero;stroke:none"
       transform="scale(1,-1)"
       x="194.6115"
       y="-90.504044"><tspan
         style="font-size:10px"
         id="tspan4511"
         sodipodi:role="line"
         y="-90.504044"
         x="194.6115">Si<tspan
   id="tspan4513"
   style="font-size:51.99999809%;baseline-shift:sub">500</tspan>C<tspan
   id="tspan4515"
   style="font-size:51.99999809%;baseline-shift:sub">500</tspan></tspan><tspan
         style="font-size:10px"
         sodipodi:role="line"
         y="-78.004044"
         x="194.6115"
         id="tspan4541">250 at./proc.</tspan></text>
<text
       y="-186.12959"
       x="251.36044"
       transform="scale(1,-1)"
       style="font-variant:normal;font-weight:normal;font-size:14.66699219px;font-family:TeXGyreHeros;-inkscape-font-specification:TeXGyreHeros-Regular;writing-mode:lr-tb;fill:#000000;fill-opacity:1;fill-rule:nonzero;stroke:none"
       id="text4517"><tspan
         x="251.36044"
         y="-186.12959"
         sodipodi:role="line"
         id="tspan4519"
         style="font-size:10px">Si<tspan
   style="font-size:51.99999809%;baseline-shift:sub"
   id="tspan4521">864</tspan>C<tspan
   style="font-size:51.99999809%;baseline-shift:sub"
   id="tspan4523">864</tspan></tspan><tspan
         x="251.36044"
         y="-173.62959"
         sodipodi:role="line"
         style="font-size:10px"
         id="tspan4555">246 at./proc.</tspan></text>
<text
       y="-190.3849"
       x="313.79449"
       transform="scale(1,-1)"
       style="font-variant:normal;font-weight:normal;font-size:14.66699219px;font-family:TeXGyreHeros;-inkscape-font-specification:TeXGyreHeros-Regular;writing-mode:lr-tb;fill:#000000;fill-opacity:1;fill-rule:nonzero;stroke:none"
       id="text4557"><tspan
         id="tspan4565"
         x="313.79449"
         y="-190.3849"
         sodipodi:role="line"
         style="font-size:7px">O(N<tspan
   style="font-size:7px;baseline-shift:super"
   id="tspan4571">2</tspan>)</tspan></text>
</g></svg>